# xmcd CD database file
#
# Track frame offsets:
#	150
#	20705
#	40555
#
# Disc length: 758 seconds
#
# Revision: 0
# Processed by: cddbd v1.5PL3 Copyright (c) Steve Scherf et al.
# Submitted via: CDex 1.51
#
DISCID=1a02f403
DTITLE=内海利勝 - 街
DYEAR=1900
DGENRE=JPop
TTITLE0=街
TTITLE1=ロッキンドリーム
TTITLE2=ゆれうごく心
EXTD=
EXTT0=
EXTT1=
EXTT2=
PLAYORDER=
